<svg xmlns="http://www.w3.org/2000/svg" xmlns:xlink="http://www.w3.org/1999/xlink" width="13" height="13" viewBox="0 0 13 13"><defs><path id="1qqsa" d="M1078.97 563.55c.19.2.28.43.28.71 0 .28-.1.52-.28.7-.2.2-.43.3-.71.3a.96.96 0 0 1-.7-.3l-4.25-4.24-4.24 4.25c-.2.19-.43.28-.71.28a.96.96 0 0 1-.7-.28.96.96 0 0 1-.3-.71c0-.28.1-.52.3-.7l4.24-4.25-4.25-4.24a.96.96 0 0 1-.28-.71c0-.28.1-.52.28-.7.2-.2.43-.3.71-.3.28 0 .52.1.7.3l4.25 4.24 4.24-4.25c.2-.19.43-.28.71-.28.28 0 .52.1.7.28.2.2.3.43.3.71 0 .28-.1.52-.3.7l-4.24 4.25z"/></defs><g><g opacity=".4" transform="translate(-1067 -553)"><use fill="#fff" xlink:href="#1qqsa"/></g></g></svg>