<svg xmlns="http://www.w3.org/2000/svg" xmlns:xlink="http://www.w3.org/1999/xlink" width="18" height="18" viewBox="0 0 18 18"><defs><path id="u5yza" d="M829.889 444.333l5.111 5.111-1.556 1.556-5.11-5.136v-.815l-.297-.271a6.106 6.106 0 0 1-1.988 1.173 6.792 6.792 0 0 1-2.333.407 6.635 6.635 0 0 1-3.37-.889 6.593 6.593 0 0 1-2.432-2.395 6.562 6.562 0 0 1-.914-3.383c0-1.218.3-2.341.901-3.37a6.6 6.6 0 0 1 2.445-2.432 6.635 6.635 0 0 1 3.37-.889c1.218 0 2.346.305 3.383.914a6.526 6.526 0 0 1 2.382 2.42 6.64 6.64 0 0 1 .877 3.357c0 .823-.136 1.61-.407 2.358a6.106 6.106 0 0 1-1.173 1.988l.271.296zm-6.177.439c.92 0 1.768-.23 2.544-.69a5.106 5.106 0 0 0 1.84-1.853 4.97 4.97 0 0 0 .676-2.544 4.97 4.97 0 0 0-.677-2.543 5.001 5.001 0 0 0-1.84-1.84 4.97 4.97 0 0 0-2.543-.676 4.97 4.97 0 0 0-2.543.676 5.105 5.105 0 0 0-1.854 1.84 4.896 4.896 0 0 0-.69 2.543c0 .92.23 1.768.69 2.544a5.213 5.213 0 0 0 1.854 1.853c.776.46 1.623.69 2.543.69z"/></defs><g><g opacity=".9" transform="translate(-817 -433)"><use fill="#101142" xlink:href="#u5yza"/></g></g></svg>